# xmcd
#
# Track frame offsets: 
#        182
#        18592
#        40935
#        61117
#        80492
#        98655
#        123445
#        137805
#        163707
#        181420
#        201172
#        215340
#        239687
#        254742
#        277070
#
# Disc length: 3722 seconds
#
# Revision: 0
# Processed by: cddbd v1.5.2PL0 Copyright (c) Steve Scherf et al.
# Submitted via: ExactAudioCopy v0.99pb3
#
DISCID=df0e880f
DTITLE=Various Artist - Paul Jones Rhythm and Blues Show
DYEAR=1989
DGENRE=Blues
TTITLE0=Lurrie Bell - I'm Your44
TTITLE1=Lurrie Bell - Going Back To Louisiana
TTITLE2=Lurrie Bell - Everybody Wants To Win
TTITLE3=Mojo Buford - Jealous Of My Baby
TTITLE4=Mojo Buford - Mo's Stroll
TTITLE5=Mojo Buford - Deep Sea Diver
TTITLE6=Mojo Buford - Picking Rags
TTITLE7=Fenton Robinson - You Don't Know What Love Is
TTITLE8=Fenton Robinson - I Had A True Love
TTITLE9=Fenton Robinson - Just A Little Bit
TTITLE10=Fenton Robinson - You Say You're Leaving
TTITLE11=Louisiana Red - Standing Like A Statue
TTITLE12=Louisiana Red - Good Kookamaloo
TTITLE13=Louisiana Red - Sweet Leg Girl
TTITLE14=Louisiana Red - Sweet Leg Girl - Outtake
EXTD=
EXTT0=
EXTT1=
EXTT2=
EXTT3=
EXTT4=
EXTT5=
EXTT6=
EXTT7=
EXTT8=
EXTT9=
EXTT10=
EXTT11=
EXTT12=
EXTT13=
EXTT14=
PLAYORDER=
